<?xml version="1.0" encoding="UTF-8" standalone="no"?>
<!DOCTYPE svg PUBLIC "-//W3C//DTD SVG 1.1//EN" "http://www.w3.org/Graphics/SVG/1.1/DTD/svg11.dtd">
<svg version="1.1" xmlns="http://www.w3.org/2000/svg" xmlns:xlink="http://www.w3.org/1999/xlink" preserveAspectRatio="xMidYMid meet" viewBox="0 0 640 640" width="640" height="640"><defs><path d="M334.57 87.6L341.38 88.29L348.11 89.25L354.75 90.48L361.29 91.96L367.74 93.69L374.09 95.67L380.32 97.88L386.44 100.34L392.45 103.02L398.32 105.92L404.07 109.05L409.68 112.39L415.14 115.93L420.46 119.68L425.63 123.62L430.64 127.76L435.48 132.08L440.16 136.58L444.66 141.25L448.98 146.1L453.11 151.1L457.06 156.27L460.8 161.59L464.35 167.06L467.68 172.67L470.81 178.41L473.71 184.29L476.4 190.29L478.85 196.41L481.07 202.65L483.04 208.99L484.77 215.44L486.25 221.99L487.48 228.63L488.44 235.35L489.13 242.16L489.55 249.04L489.69 256L489.55 262.96L489.13 269.84L488.44 276.65L487.48 283.37L486.25 290.01L484.77 296.56L483.04 303.01L481.07 309.35L478.85 315.59L476.4 321.71L473.71 327.71L470.81 333.59L467.68 339.33L464.35 344.94L460.8 350.41L457.06 355.73L453.11 360.9L448.98 365.9L444.66 370.75L440.16 375.42L435.48 379.92L430.64 384.24L425.63 388.38L420.46 392.32L415.14 396.07L409.68 399.61L404.07 402.95L398.32 406.08L392.45 408.98L386.44 411.66L380.32 414.12L374.09 416.33L367.74 418.31L361.29 420.04L354.75 421.52L348.11 422.75L341.38 423.71L334.57 424.4L327.69 424.82L320.73 424.96L313.78 424.82L306.89 424.4L300.08 423.71L293.36 422.75L286.72 421.52L280.17 420.04L273.72 418.31L267.38 416.33L261.14 414.12L255.02 411.66L249.02 408.98L243.14 406.08L237.4 402.95L231.79 399.61L226.32 396.07L221 392.32L215.84 388.38L210.83 384.24L205.98 379.92L201.31 375.42L196.81 370.75L192.49 365.9L188.35 360.9L184.41 355.73L180.66 350.41L177.12 344.94L173.78 339.33L170.66 333.59L167.75 327.71L165.07 321.71L162.62 315.59L160.4 309.35L158.42 303.01L156.69 296.56L155.21 290.01L153.99 283.37L153.03 276.65L152.33 269.84L151.91 262.96L151.77 256L151.91 249.04L152.33 242.16L153.03 235.35L153.99 228.63L155.21 221.99L156.69 215.44L158.42 208.99L160.4 202.65L162.62 196.41L165.07 190.29L167.75 184.29L170.66 178.41L173.78 172.67L177.12 167.06L180.66 161.59L184.41 156.27L188.35 151.1L192.49 146.1L196.81 141.25L201.31 136.58L205.98 132.08L210.83 127.76L215.84 123.62L221 119.68L226.32 115.93L231.79 112.39L237.4 109.05L243.14 105.92L249.02 103.02L255.02 100.34L261.14 97.88L267.38 95.67L273.72 93.69L280.17 91.96L286.72 90.48L293.36 89.25L300.08 88.29L306.89 87.6L313.78 87.18L320.73 87.04L327.69 87.18L334.57 87.6ZM322.97 161.56L322.69 161.59L322.4 161.63L322.11 161.68L321.83 161.74L321.55 161.82L321.27 161.9L320.99 162L320.72 162.11L320.44 162.23L320.17 162.37L319.91 162.51L319.65 162.66L319.39 162.83L319.14 163.01L318.89 163.2L318.64 163.4L318.41 163.62L318.17 163.84L234.2 245.25L233.75 245.72L233.33 246.2L232.93 246.69L232.55 247.19L232.19 247.71L231.85 248.23L231.54 248.76L231.25 249.31L230.99 249.86L230.75 250.42L230.53 250.98L230.33 251.55L230.16 252.13L230.01 252.71L229.88 253.29L229.78 253.88L229.7 254.47L229.64 255.07L229.61 255.66L229.6 256.26L229.61 256.85L229.64 257.45L229.7 258.04L229.78 258.63L229.88 259.22L230.01 259.8L230.16 260.38L230.33 260.96L230.53 261.53L230.75 262.1L230.99 262.65L231.25 263.2L231.54 263.75L231.85 264.28L232.19 264.81L232.55 265.32L232.93 265.82L233.33 266.32L233.75 266.8L234.2 267.26L318.17 348.67L318.25 348.79L318.33 348.89L318.42 349L318.51 349.1L318.6 349.2L318.7 349.3L318.8 349.39L318.9 349.47L319.01 349.56L319.12 349.64L319.23 349.72L319.34 349.79L319.46 349.86L319.58 349.93L319.7 350L319.83 350.06L319.95 350.11L320.08 350.17L320.21 350.22L320.35 350.27L320.48 350.32L320.62 350.36L320.76 350.4L320.9 350.44L321.04 350.48L321.19 350.51L321.33 350.54L321.48 350.57L321.62 350.59L321.77 350.62L321.92 350.64L322.07 350.65L322.22 350.67L322.37 350.68L322.53 350.69L322.68 350.7L322.83 350.71L322.98 350.72L323.14 350.72L323.29 350.72L323.48 350.72L323.67 350.72L323.86 350.71L324.04 350.7L324.23 350.69L324.41 350.68L324.59 350.67L324.77 350.65L324.94 350.63L325.12 350.61L325.29 350.58L325.46 350.55L325.63 350.52L325.79 350.49L325.96 350.45L326.12 350.41L326.28 350.36L326.44 350.32L326.59 350.26L326.75 350.21L326.9 350.15L327.05 350.08L327.2 350.02L327.35 349.95L327.49 349.87L327.64 349.79L327.78 349.71L327.92 349.62L328.05 349.52L328.19 349.42L328.32 349.32L328.45 349.21L328.58 349.1L328.71 348.98L328.84 348.86L328.96 348.73L329.08 348.6L329.2 348.46L329.32 348.31L329.44 348.16L329.62 347.93L329.8 347.69L329.96 347.44L330.11 347.2L330.25 346.94L330.38 346.68L330.5 346.42L330.61 346.16L330.7 345.89L330.79 345.62L330.86 345.34L330.92 345.06L330.98 344.78L331.02 344.5L331.05 344.22L331.07 343.93L331.07 343.65L331.07 343.36L331.06 343.07L331.04 342.78L331 342.5L330.96 342.21L330.9 341.92L330.84 341.64L330.76 341.35L330.67 341.07L330.58 340.78L330.47 340.5L330.35 340.23L330.23 339.95L330.09 339.68L329.94 339.41L329.79 339.15L329.62 338.88L329.44 338.63L329.26 338.37L329.06 338.12L328.85 337.88L328.64 337.64L328.41 337.41L252.64 263.68L407.77 263.68L408.08 263.67L408.38 263.65L408.68 263.62L408.98 263.58L409.28 263.52L409.57 263.45L409.86 263.37L410.14 263.27L410.42 263.17L410.7 263.06L410.97 262.93L411.24 262.8L411.5 262.65L411.75 262.49L412 262.33L412.24 262.16L412.48 261.97L412.71 261.78L412.93 261.58L413.15 261.38L413.36 261.16L413.55 260.94L413.75 260.71L413.93 260.47L414.1 260.23L414.27 259.98L414.42 259.73L414.57 259.47L414.7 259.2L414.83 258.93L414.94 258.65L415.05 258.37L415.14 258.09L415.22 257.8L415.29 257.51L415.35 257.21L415.39 256.91L415.43 256.61L415.45 256.31L415.45 256L415.45 255.69L415.43 255.39L415.39 255.09L415.35 254.79L415.29 254.49L415.22 254.2L415.14 253.91L415.05 253.63L414.94 253.35L414.83 253.07L414.7 252.8L414.57 252.53L414.42 252.27L414.27 252.02L414.1 251.77L413.93 251.53L413.75 251.29L413.55 251.06L413.36 250.84L413.15 250.62L412.93 250.42L412.71 250.22L412.48 250.03L412.24 249.84L412 249.67L411.75 249.51L411.5 249.35L411.24 249.2L410.97 249.07L410.7 248.94L410.42 248.83L410.14 248.73L409.86 248.63L409.57 248.55L409.28 248.48L408.98 248.42L408.68 248.38L408.38 248.35L408.08 248.33L407.77 248.32L252.64 248.32L328.92 174.59L329.15 174.36L329.36 174.12L329.56 173.88L329.75 173.63L329.93 173.37L330.1 173.12L330.25 172.85L330.4 172.59L330.53 172.32L330.65 172.05L330.76 171.77L330.86 171.5L330.95 171.22L331.02 170.93L331.08 170.65L331.14 170.36L331.18 170.08L331.2 169.79L331.22 169.5L331.23 169.22L331.22 168.93L331.2 168.64L331.18 168.35L331.14 168.07L331.08 167.78L331.02 167.5L330.95 167.22L330.86 166.94L330.76 166.66L330.65 166.38L330.53 166.11L330.4 165.84L330.25 165.58L330.1 165.32L329.93 165.06L329.75 164.8L329.56 164.56L329.36 164.31L329.15 164.07L328.92 163.84L328.69 163.62L328.45 163.4L328.21 163.2L327.96 163.01L327.71 162.83L327.45 162.66L327.19 162.51L326.92 162.37L326.65 162.23L326.38 162.11L326.1 162L325.83 161.9L325.55 161.82L325.27 161.74L324.98 161.68L324.7 161.63L324.41 161.59L324.12 161.56L323.84 161.54L323.55 161.54L323.26 161.54L322.97 161.56Z" id="a7Yw7KIHL"></path></defs><g><g><g><use xlink:href="#a7Yw7KIHL" opacity="1" fill="#2e5465" fill-opacity="1"></use><g><use xlink:href="#a7Yw7KIHL" opacity="1" fill-opacity="0" stroke="#000000" stroke-width="1" stroke-opacity="0"></use></g></g></g></g></svg>