<?xml version="1.0" encoding="UTF-8" standalone="no"?>
<!DOCTYPE svg PUBLIC "-//W3C//DTD SVG 1.1//EN" "http://www.w3.org/Graphics/SVG/1.1/DTD/svg11.dtd">
<svg version="1.1" xmlns="http://www.w3.org/2000/svg" xmlns:xlink="http://www.w3.org/1999/xlink" preserveAspectRatio="xMidYMid meet" viewBox="0 0 640 640" width="640" height="640"><defs><path d="M229.28 247.51L229.67 247.55L230.06 247.61L230.44 247.68L230.82 247.76L231.19 247.86L231.56 247.97L231.92 248.1L232.27 248.24L232.95 248.56L233.28 248.74L233.6 248.93L233.92 249.14L234.22 249.35L234.52 249.58L234.81 249.82L235.09 250.07L235.35 250.32L235.61 250.59L235.86 250.87L236.1 251.16L236.33 251.46L236.54 251.76L236.94 252.4L237.12 252.73L237.44 253.41L237.58 253.76L237.7 254.12L237.82 254.49L237.92 254.86L238 255.23L238.07 255.62L238.13 256L238.17 256.4L238.19 256.79L238.2 257.19L238.2 367.93L238.19 368.33L238.17 368.72L238.13 369.11L238.07 369.5L238 369.88L237.92 370.26L237.82 370.63L237.7 371L237.58 371.35L237.44 371.71L237.12 372.39L236.94 372.72L236.54 373.36L236.33 373.66L236.1 373.96L235.86 374.25L235.61 374.52L235.35 374.79L235.09 375.05L234.81 375.3L234.52 375.54L233.92 375.98L233.6 376.18L233.28 376.37L232.95 376.55L232.61 376.72L232.27 376.88L231.92 377.02L231.56 377.14L231.19 377.26L230.82 377.36L230.44 377.44L230.06 377.51L229.67 377.57L229.28 377.61L228.89 377.63L228.49 377.64L117.75 377.64L117.35 377.63L116.96 377.61L116.56 377.57L116.18 377.51L115.8 377.44L115.42 377.36L115.05 377.26L114.68 377.14L114.32 377.02L113.97 376.88L113.63 376.72L113.29 376.55L112.96 376.37L112.64 376.18L112.32 375.98L111.72 375.54L111.43 375.3L111.15 375.05L110.88 374.79L110.38 374.25L110.14 373.96L109.91 373.66L109.7 373.36L109.3 372.72L109.12 372.39L108.8 371.71L108.66 371.35L108.42 370.63L108.32 370.26L108.24 369.88L108.17 369.5L108.11 369.11L108.07 368.72L108.05 368.33L108.04 367.93L108.04 257.19L108.05 256.79L108.07 256.4L108.11 256L108.17 255.62L108.24 255.23L108.32 254.86L108.42 254.49L108.54 254.12L108.66 253.76L108.8 253.41L109.12 252.73L109.3 252.4L109.7 251.76L109.91 251.46L110.14 251.16L110.38 250.87L110.63 250.59L110.88 250.32L111.15 250.07L111.43 249.82L111.72 249.58L112.02 249.35L112.32 249.14L112.64 248.93L112.96 248.74L113.29 248.56L113.97 248.24L114.32 248.1L114.68 247.97L115.05 247.86L115.42 247.76L115.8 247.68L116.18 247.61L116.56 247.55L116.96 247.51L117.35 247.49L117.75 247.48L228.49 247.48L228.89 247.49L229.28 247.51ZM127.47 358.21L218.77 358.21L218.77 266.91L127.47 266.91L127.47 358.21Z" id="k23XBzNXj"></path><path d="M229.28 247.51L229.67 247.55L230.06 247.61L230.44 247.68L230.82 247.76L231.19 247.86L231.56 247.97L231.92 248.1L232.27 248.24L232.95 248.56L233.28 248.74L233.6 248.93L233.92 249.14L234.22 249.35L234.52 249.58L234.81 249.82L235.09 250.07L235.35 250.32L235.61 250.59L235.86 250.87L236.1 251.16L236.33 251.46L236.54 251.76L236.94 252.4L237.12 252.73L237.44 253.41L237.58 253.76L237.7 254.12L237.82 254.49L237.92 254.86L238 255.23L238.07 255.62L238.13 256L238.17 256.4L238.19 256.79L238.2 257.19L238.2 367.93L238.19 368.33L238.17 368.72L238.13 369.11L238.07 369.5L238 369.88L237.92 370.26L237.82 370.63L237.7 371L237.58 371.35L237.44 371.71L237.12 372.39L236.94 372.72L236.54 373.36L236.33 373.66L236.1 373.96L235.86 374.25L235.61 374.52L235.35 374.79L235.09 375.05L234.81 375.3L234.52 375.54L233.92 375.98L233.6 376.18L233.28 376.37L232.95 376.55L232.61 376.72L232.27 376.88L231.92 377.02L231.56 377.14L231.19 377.26L230.82 377.36L230.44 377.44L230.06 377.51L229.67 377.57L229.28 377.61L228.89 377.63L228.49 377.64L117.75 377.64L117.35 377.63L116.96 377.61L116.56 377.57L116.18 377.51L115.8 377.44L115.42 377.36L115.05 377.26L114.68 377.14L114.32 377.02L113.97 376.88L113.63 376.72L113.29 376.55L112.96 376.37L112.64 376.18L112.32 375.98L111.72 375.54L111.43 375.3L111.15 375.05L110.88 374.79L110.38 374.25L110.14 373.96L109.91 373.66L109.7 373.36L109.3 372.72L109.12 372.39L108.8 371.71L108.66 371.35L108.42 370.63L108.32 370.26L108.24 369.88L108.17 369.5L108.11 369.11L108.07 368.72L108.05 368.33L108.04 367.93L108.04 257.19L108.05 256.79L108.07 256.4L108.11 256L108.17 255.62L108.24 255.23L108.32 254.86L108.42 254.49L108.54 254.12L108.66 253.76L108.8 253.41L109.12 252.73L109.3 252.4L109.7 251.76L109.91 251.46L110.14 251.16L110.38 250.87L110.63 250.59L110.88 250.32L111.15 250.07L111.43 249.82L111.72 249.58L112.02 249.35L112.32 249.14L112.64 248.93L112.96 248.74L113.29 248.56L113.97 248.24L114.32 248.1L114.68 247.97L115.05 247.86L115.42 247.76L115.8 247.68L116.18 247.61L116.56 247.55L116.96 247.51L117.35 247.49L117.75 247.48L228.49 247.48L228.89 247.49L229.28 247.51ZM127.47 358.21L218.77 358.21L218.77 266.91L127.47 266.91L127.47 358.21Z" id="c16fbccOd"></path><path d="M524.57 247.51L524.96 247.55L525.35 247.61L525.73 247.68L526.1 247.76L526.47 247.86L526.84 247.97L527.2 248.1L527.55 248.24L527.9 248.4L528.23 248.56L528.56 248.74L528.89 248.93L529.51 249.35L529.8 249.58L530.09 249.82L530.37 250.07L530.64 250.32L530.9 250.59L531.14 250.87L531.38 251.16L531.61 251.46L531.82 251.76L532.03 252.08L532.22 252.4L532.4 252.73L532.57 253.07L532.72 253.41L532.86 253.76L532.99 254.12L533.1 254.49L533.2 254.86L533.29 255.23L533.36 255.62L533.41 256L533.45 256.4L533.47 256.79L533.48 257.19L533.48 367.93L533.47 368.33L533.45 368.72L533.41 369.11L533.36 369.5L533.29 369.88L533.2 370.26L533.1 370.63L532.99 371L532.86 371.35L532.72 371.71L532.57 372.05L532.4 372.39L532.22 372.72L532.03 373.04L531.82 373.36L531.61 373.66L531.38 373.96L531.14 374.25L530.9 374.52L530.64 374.79L530.37 375.05L530.09 375.3L529.8 375.54L529.51 375.76L529.2 375.98L528.89 376.18L528.56 376.37L528.23 376.55L527.9 376.72L527.55 376.88L527.2 377.02L526.84 377.14L526.47 377.26L526.1 377.36L525.73 377.44L525.35 377.51L524.96 377.57L524.57 377.61L524.17 377.63L523.77 377.64L413.04 377.64L412.64 377.63L412.24 377.61L411.85 377.57L411.46 377.51L411.08 377.44L410.7 377.36L410.33 377.26L409.61 377.02L409.26 376.88L408.91 376.72L408.57 376.55L408.24 376.37L407.92 376.18L407.61 375.98L407.3 375.76L407 375.54L406.72 375.3L406.44 375.05L406.17 374.79L405.91 374.52L405.66 374.25L405.42 373.96L404.98 373.36L404.78 373.04L404.59 372.72L404.41 372.39L404.24 372.05L404.09 371.71L403.95 371.35L403.82 370.99L403.71 370.63L403.61 370.26L403.52 369.88L403.45 369.5L403.4 369.11L403.36 368.72L403.33 368.33L403.32 367.93L403.32 257.19L403.33 256.79L403.36 256.4L403.4 256L403.45 255.62L403.52 255.23L403.61 254.86L403.71 254.49L403.82 254.12L403.95 253.76L404.09 253.41L404.24 253.07L404.41 252.73L404.59 252.4L404.78 252.08L404.98 251.76L405.42 251.16L405.66 250.87L405.91 250.59L406.17 250.32L406.44 250.07L406.72 249.82L407 249.58L407.3 249.35L407.92 248.93L408.24 248.74L408.57 248.56L408.91 248.4L409.26 248.24L409.61 248.1L409.97 247.97L410.33 247.86L410.7 247.76L411.08 247.68L411.46 247.61L411.85 247.55L412.24 247.51L412.64 247.49L413.04 247.48L523.77 247.48L524.17 247.49L524.57 247.51ZM422.75 358.21L514.06 358.21L514.06 266.91L422.75 266.91L422.75 358.21Z" id="bbDqlFKV"></path><path d="M524.57 247.51L524.96 247.55L525.35 247.61L525.73 247.68L526.1 247.76L526.47 247.86L526.84 247.97L527.2 248.1L527.55 248.24L527.9 248.4L528.23 248.56L528.56 248.74L528.89 248.93L529.51 249.35L529.8 249.58L530.09 249.82L530.37 250.07L530.64 250.32L530.9 250.59L531.14 250.87L531.38 251.16L531.61 251.46L531.82 251.76L532.03 252.08L532.22 252.4L532.4 252.73L532.57 253.07L532.72 253.41L532.86 253.76L532.99 254.12L533.1 254.49L533.2 254.86L533.29 255.23L533.36 255.62L533.41 256L533.45 256.4L533.47 256.79L533.48 257.19L533.48 367.93L533.47 368.33L533.45 368.72L533.41 369.11L533.36 369.5L533.29 369.88L533.2 370.26L533.1 370.63L532.99 371L532.86 371.35L532.72 371.71L532.57 372.05L532.4 372.39L532.22 372.72L532.03 373.04L531.82 373.36L531.61 373.66L531.38 373.96L531.14 374.25L530.9 374.52L530.64 374.79L530.37 375.05L530.09 375.3L529.8 375.54L529.51 375.76L529.2 375.98L528.89 376.18L528.56 376.37L528.23 376.55L527.9 376.72L527.55 376.88L527.2 377.02L526.84 377.14L526.47 377.26L526.1 377.36L525.73 377.44L525.35 377.51L524.96 377.57L524.57 377.61L524.17 377.63L523.77 377.64L413.04 377.64L412.64 377.63L412.24 377.61L411.85 377.57L411.46 377.51L411.08 377.44L410.7 377.36L410.33 377.26L409.61 377.02L409.26 376.88L408.91 376.72L408.57 376.55L408.24 376.37L407.92 376.18L407.61 375.98L407.3 375.76L407 375.54L406.72 375.3L406.44 375.05L406.17 374.79L405.91 374.52L405.66 374.25L405.42 373.96L404.98 373.36L404.78 373.04L404.59 372.72L404.41 372.39L404.24 372.05L404.09 371.71L403.95 371.35L403.82 370.99L403.71 370.63L403.61 370.26L403.52 369.88L403.45 369.5L403.4 369.11L403.36 368.72L403.33 368.33L403.32 367.93L403.32 257.19L403.33 256.79L403.36 256.4L403.4 256L403.45 255.62L403.52 255.23L403.61 254.86L403.71 254.49L403.82 254.12L403.95 253.76L404.09 253.41L404.24 253.07L404.41 252.73L404.59 252.4L404.78 252.08L404.98 251.76L405.42 251.16L405.66 250.87L405.91 250.59L406.17 250.32L406.44 250.07L406.72 249.82L407 249.58L407.3 249.35L407.92 248.93L408.24 248.74L408.57 248.56L408.91 248.4L409.26 248.24L409.61 248.1L409.97 247.97L410.33 247.86L410.7 247.76L411.08 247.68L411.46 247.61L411.85 247.55L412.24 247.51L412.64 247.49L413.04 247.48L523.77 247.48L524.17 247.49L524.57 247.51ZM422.75 358.21L514.06 358.21L514.06 266.91L422.75 266.91L422.75 358.21Z" id="d2VzgJxOWf"></path><path d="M461.56 324.13C462.33 323.36 466.19 319.51 473.13 312.56C466.17 305.62 462.31 301.76 461.54 300.99C457.74 297.2 457.74 291.05 461.53 287.25C465.32 283.45 471.47 283.45 475.27 287.24C477.11 289.09 491.89 303.84 493.73 305.69C495.56 307.51 496.58 309.98 496.58 312.56C496.58 315.13 495.56 317.6 493.74 319.43C491.89 321.27 477.14 336.02 475.29 337.87C473.4 339.77 470.91 340.72 468.43 340.72C465.94 340.72 463.46 339.77 461.56 337.87C457.77 334.08 457.77 327.93 461.56 324.13Z" id="b1dI75wxD0"></path><path d="M461.56 324.13C462.33 323.36 466.19 319.51 473.13 312.56C466.17 305.62 462.31 301.76 461.54 300.99C457.74 297.2 457.74 291.05 461.53 287.25C465.32 283.45 471.47 283.45 475.27 287.24C477.11 289.09 491.89 303.84 493.73 305.69C495.56 307.51 496.58 309.98 496.58 312.56C496.58 315.13 495.56 317.6 493.74 319.43C491.89 321.27 477.14 336.02 475.29 337.87C473.4 339.77 470.91 340.72 468.43 340.72C465.94 340.72 463.46 339.77 461.56 337.87C457.77 334.08 457.77 327.93 461.56 324.13Z" id="c1BbirwI2N"></path><path d="M157.02 319.43C155.19 317.61 154.17 315.14 154.17 312.56C154.17 309.98 155.19 307.51 157.01 305.69C158.86 303.85 173.61 289.09 175.46 287.25C179.25 283.46 185.4 283.46 189.19 287.25C192.99 291.04 192.99 297.19 189.19 300.99C188.42 301.76 184.56 305.61 177.62 312.56C184.58 319.5 188.44 323.36 189.21 324.13C193.01 327.92 193.01 334.07 189.22 337.87C187.32 339.77 184.84 340.72 182.35 340.72C179.86 340.72 177.38 339.77 175.48 337.88C173.64 336.03 158.86 321.28 157.02 319.43Z" id="a8l9yTHCj"></path><path d="M157.02 319.43C155.19 317.61 154.17 315.14 154.17 312.56C154.17 309.98 155.19 307.51 157.01 305.69C158.86 303.85 173.61 289.09 175.46 287.25C179.25 283.46 185.4 283.46 189.19 287.25C192.99 291.04 192.99 297.19 189.19 300.99C188.42 301.76 184.56 305.61 177.62 312.56C184.58 319.5 188.44 323.36 189.21 324.13C193.01 327.92 193.01 334.07 189.22 337.87C187.32 339.77 184.84 340.72 182.35 340.72C179.86 340.72 177.38 339.77 175.48 337.88C173.64 336.03 158.86 321.28 157.02 319.43Z" id="ktMKXTj6n"></path></defs><g><g><g><use xlink:href="#k23XBzNXj" opacity="1" fill="#000000" fill-opacity="1"></use><g><use xlink:href="#k23XBzNXj" opacity="1" fill-opacity="0" stroke="#000000" stroke-width="1" stroke-opacity="0"></use></g></g><g><use xlink:href="#c16fbccOd" opacity="1" fill="#428397" fill-opacity="0.97"></use><g><use xlink:href="#c16fbccOd" opacity="1" fill-opacity="0" stroke="#000000" stroke-width="1" stroke-opacity="0"></use></g><g><filter id="shadow5081014" x="99.04" y="238.48" width="149.16" height="149.16" filterUnits="userSpaceOnUse" primitiveUnits="userSpaceOnUse"><feFlood></feFlood><feComposite in2="SourceAlpha" operator="out"></feComposite><feGaussianBlur stdDeviation="1"></feGaussianBlur><feOffset dx="1" dy="1" result="afterOffset"></feOffset><feFlood flood-color="#428397" flood-opacity="0.97"></feFlood><feComposite in2="afterOffset" operator="in"></feComposite><feMorphology operator="dilate" radius="1"></feMorphology><feComposite in2="SourceAlpha" operator="in"></feComposite></filter><path d="M229.28 247.51L229.67 247.55L230.06 247.61L230.44 247.68L230.82 247.76L231.19 247.86L231.56 247.97L231.92 248.1L232.27 248.24L232.95 248.56L233.28 248.74L233.6 248.93L233.92 249.14L234.22 249.35L234.52 249.58L234.81 249.82L235.09 250.07L235.35 250.32L235.61 250.59L235.86 250.87L236.1 251.16L236.33 251.46L236.54 251.76L236.94 252.4L237.12 252.73L237.44 253.41L237.58 253.76L237.7 254.12L237.82 254.49L237.92 254.86L238 255.23L238.07 255.62L238.13 256L238.17 256.4L238.19 256.79L238.2 257.19L238.2 367.93L238.19 368.33L238.17 368.72L238.13 369.11L238.07 369.5L238 369.88L237.92 370.26L237.82 370.63L237.7 371L237.58 371.35L237.44 371.71L237.12 372.39L236.94 372.72L236.54 373.36L236.33 373.66L236.1 373.96L235.86 374.25L235.61 374.52L235.35 374.79L235.09 375.05L234.81 375.3L234.52 375.54L233.92 375.98L233.6 376.18L233.28 376.37L232.95 376.55L232.61 376.72L232.27 376.88L231.92 377.02L231.56 377.14L231.19 377.26L230.82 377.36L230.44 377.44L230.06 377.51L229.67 377.57L229.28 377.61L228.89 377.63L228.49 377.64L117.75 377.64L117.35 377.63L116.96 377.61L116.56 377.57L116.18 377.51L115.8 377.44L115.42 377.36L115.05 377.26L114.68 377.14L114.32 377.02L113.97 376.88L113.63 376.72L113.29 376.55L112.96 376.37L112.64 376.18L112.32 375.98L111.72 375.54L111.43 375.3L111.15 375.05L110.88 374.79L110.38 374.25L110.14 373.96L109.91 373.66L109.7 373.36L109.3 372.72L109.12 372.39L108.8 371.71L108.66 371.35L108.42 370.63L108.32 370.26L108.24 369.88L108.17 369.5L108.11 369.11L108.07 368.72L108.05 368.33L108.04 367.93L108.04 257.19L108.05 256.79L108.07 256.4L108.11 256L108.17 255.62L108.24 255.23L108.32 254.86L108.42 254.49L108.54 254.12L108.66 253.76L108.8 253.41L109.12 252.73L109.3 252.4L109.7 251.76L109.91 251.46L110.14 251.16L110.38 250.87L110.63 250.59L110.88 250.32L111.15 250.07L111.43 249.82L111.72 249.58L112.02 249.35L112.32 249.14L112.64 248.93L112.96 248.74L113.29 248.56L113.97 248.24L114.32 248.1L114.68 247.97L115.05 247.86L115.42 247.76L115.8 247.68L116.18 247.61L116.56 247.55L116.96 247.51L117.35 247.49L117.75 247.48L228.49 247.48L228.89 247.49L229.28 247.51ZM127.47 358.21L218.77 358.21L218.77 266.91L127.47 266.91L127.47 358.21Z" id="f8PQ0ZX3k" fill="white" fill-opacity="1" filter="url(#shadow5081014)"></path></g></g><g><use xlink:href="#bbDqlFKV" opacity="1" fill="#000000" fill-opacity="1"></use><g><use xlink:href="#bbDqlFKV" opacity="1" fill-opacity="0" stroke="#000000" stroke-width="1" stroke-opacity="0"></use></g></g><g><use xlink:href="#d2VzgJxOWf" opacity="1" fill="#428397" fill-opacity="0.97"></use><g><use xlink:href="#d2VzgJxOWf" opacity="1" fill-opacity="0" stroke="#000000" stroke-width="1" stroke-opacity="0"></use></g><g><filter id="shadow12958206" x="394.32" y="238.48" width="149.16" height="149.16" filterUnits="userSpaceOnUse" primitiveUnits="userSpaceOnUse"><feFlood></feFlood><feComposite in2="SourceAlpha" operator="out"></feComposite><feGaussianBlur stdDeviation="1"></feGaussianBlur><feOffset dx="1" dy="1" result="afterOffset"></feOffset><feFlood flood-color="#428397" flood-opacity="0.97"></feFlood><feComposite in2="afterOffset" operator="in"></feComposite><feMorphology operator="dilate" radius="1"></feMorphology><feComposite in2="SourceAlpha" operator="in"></feComposite></filter><path d="M524.57 247.51L524.96 247.55L525.35 247.61L525.73 247.68L526.1 247.76L526.47 247.86L526.84 247.97L527.2 248.1L527.55 248.24L527.9 248.4L528.23 248.56L528.56 248.74L528.89 248.93L529.51 249.35L529.8 249.58L530.09 249.82L530.37 250.07L530.64 250.32L530.9 250.59L531.14 250.87L531.38 251.16L531.61 251.46L531.82 251.76L532.03 252.08L532.22 252.4L532.4 252.73L532.57 253.07L532.72 253.41L532.86 253.76L532.99 254.12L533.1 254.49L533.2 254.86L533.29 255.23L533.36 255.62L533.41 256L533.45 256.4L533.47 256.79L533.48 257.19L533.48 367.93L533.47 368.33L533.45 368.72L533.41 369.11L533.36 369.5L533.29 369.88L533.2 370.26L533.1 370.63L532.99 371L532.86 371.35L532.72 371.71L532.57 372.05L532.4 372.39L532.22 372.72L532.03 373.04L531.82 373.36L531.61 373.66L531.38 373.96L531.14 374.25L530.9 374.52L530.64 374.79L530.37 375.05L530.09 375.3L529.8 375.54L529.51 375.76L529.2 375.98L528.89 376.18L528.56 376.37L528.23 376.55L527.9 376.72L527.55 376.88L527.2 377.02L526.84 377.14L526.47 377.26L526.1 377.36L525.73 377.44L525.35 377.51L524.96 377.57L524.57 377.61L524.17 377.63L523.77 377.64L413.04 377.64L412.64 377.63L412.24 377.61L411.85 377.57L411.46 377.51L411.08 377.44L410.7 377.36L410.33 377.26L409.61 377.02L409.26 376.88L408.91 376.72L408.57 376.55L408.24 376.37L407.92 376.18L407.61 375.98L407.3 375.76L407 375.54L406.72 375.3L406.44 375.05L406.17 374.79L405.91 374.52L405.66 374.25L405.42 373.96L404.98 373.36L404.78 373.04L404.59 372.72L404.41 372.39L404.24 372.05L404.09 371.71L403.95 371.35L403.82 370.99L403.71 370.63L403.61 370.26L403.52 369.88L403.45 369.5L403.4 369.11L403.36 368.72L403.33 368.33L403.32 367.93L403.32 257.19L403.33 256.79L403.36 256.4L403.4 256L403.45 255.62L403.52 255.23L403.61 254.86L403.71 254.49L403.82 254.12L403.95 253.76L404.09 253.41L404.24 253.07L404.41 252.73L404.59 252.4L404.78 252.08L404.98 251.76L405.42 251.16L405.66 250.87L405.91 250.59L406.17 250.32L406.44 250.07L406.72 249.82L407 249.58L407.3 249.35L407.92 248.93L408.24 248.74L408.57 248.56L408.91 248.4L409.26 248.24L409.61 248.1L409.97 247.97L410.33 247.86L410.7 247.76L411.08 247.68L411.46 247.61L411.85 247.55L412.24 247.51L412.64 247.49L413.04 247.48L523.77 247.48L524.17 247.49L524.57 247.51ZM422.75 358.21L514.06 358.21L514.06 266.91L422.75 266.91L422.75 358.21Z" id="b2J3diyGYO" fill="white" fill-opacity="1" filter="url(#shadow12958206)"></path></g></g><g><use xlink:href="#b1dI75wxD0" opacity="1" fill="#000000" fill-opacity="1"></use><g><use xlink:href="#b1dI75wxD0" opacity="1" fill-opacity="0" stroke="#000000" stroke-width="1" stroke-opacity="0"></use></g></g><g><use xlink:href="#c1BbirwI2N" opacity="1" fill="#428397" fill-opacity="0.97"></use><g><use xlink:href="#c1BbirwI2N" opacity="1" fill-opacity="0" stroke="#000000" stroke-width="1" stroke-opacity="0"></use></g><g><filter id="shadow12243162" x="449.69" y="275.4" width="56.89" height="75.32" filterUnits="userSpaceOnUse" primitiveUnits="userSpaceOnUse"><feFlood></feFlood><feComposite in2="SourceAlpha" operator="out"></feComposite><feGaussianBlur stdDeviation="1"></feGaussianBlur><feOffset dx="1" dy="1" result="afterOffset"></feOffset><feFlood flood-color="#487785" flood-opacity="0.97"></feFlood><feComposite in2="afterOffset" operator="in"></feComposite><feMorphology operator="dilate" radius="1"></feMorphology><feComposite in2="SourceAlpha" operator="in"></feComposite></filter><path d="M461.56 324.13C462.33 323.36 466.19 319.51 473.13 312.56C466.17 305.62 462.31 301.76 461.54 300.99C457.74 297.2 457.74 291.05 461.53 287.25C465.32 283.45 471.47 283.45 475.27 287.24C477.11 289.09 491.89 303.84 493.73 305.69C495.56 307.51 496.58 309.98 496.58 312.56C496.58 315.13 495.56 317.6 493.74 319.43C491.89 321.27 477.14 336.02 475.29 337.87C473.4 339.77 470.91 340.72 468.43 340.72C465.94 340.72 463.46 339.77 461.56 337.87C457.77 334.08 457.77 327.93 461.56 324.13Z" id="d61fkyvIfv" fill="white" fill-opacity="1" filter="url(#shadow12243162)"></path></g></g><g><use xlink:href="#a8l9yTHCj" opacity="1" fill="#000000" fill-opacity="1"></use><g><use xlink:href="#a8l9yTHCj" opacity="1" fill-opacity="0" stroke="#000000" stroke-width="1" stroke-opacity="0"></use></g></g><g><use xlink:href="#ktMKXTj6n" opacity="1" fill="#428397" fill-opacity="0.97"></use><g><use xlink:href="#ktMKXTj6n" opacity="1" fill-opacity="0" stroke="#000000" stroke-width="1" stroke-opacity="0"></use></g><g><filter id="shadow13404919" x="145.17" y="275.41" width="56.89" height="75.31" filterUnits="userSpaceOnUse" primitiveUnits="userSpaceOnUse"><feFlood></feFlood><feComposite in2="SourceAlpha" operator="out"></feComposite><feGaussianBlur stdDeviation="1"></feGaussianBlur><feOffset dx="1" dy="1" result="afterOffset"></feOffset><feFlood flood-color="#428397" flood-opacity="0.97"></feFlood><feComposite in2="afterOffset" operator="in"></feComposite><feMorphology operator="dilate" radius="1"></feMorphology><feComposite in2="SourceAlpha" operator="in"></feComposite></filter><path d="M157.02 319.43C155.19 317.61 154.17 315.14 154.17 312.56C154.17 309.98 155.19 307.51 157.01 305.69C158.86 303.85 173.61 289.09 175.46 287.25C179.25 283.46 185.4 283.46 189.19 287.25C192.99 291.04 192.99 297.19 189.19 300.99C188.42 301.76 184.56 305.61 177.62 312.56C184.58 319.5 188.44 323.36 189.21 324.13C193.01 327.92 193.01 334.07 189.22 337.87C187.32 339.77 184.84 340.72 182.35 340.72C179.86 340.72 177.38 339.77 175.48 337.88C173.64 336.03 158.86 321.28 157.02 319.43Z" id="b3MkvVt2No" fill="white" fill-opacity="1" filter="url(#shadow13404919)"></path></g></g></g></g></svg>